<svg version="1.1" id="Layer_1" xmlns="http://www.w3.org/2000/svg" xmlns:xlink="http://www.w3.org/1999/xlink" x="0px" y="0px"
	 width="100%" viewBox="0 0 68 61" enable-background="new 0 0 68 61" xml:space="preserve">
<path fill="#000000" opacity="1.000000" stroke="none" 
	d="
M47.000290,62.000000 
	C31.333565,62.000000 16.166903,62.000000 1.000181,62.000000 
	C1.000121,41.666756 1.000121,21.333509 1.000060,1.000197 
	C23.666571,1.000132 46.333141,1.000132 68.999786,1.000066 
	C68.999855,21.333231 68.999855,41.666462 68.999924,61.999847 
	C61.833450,62.000000 54.666901,62.000000 47.000290,62.000000 
M19.198849,10.019094 
	C18.124271,10.070440 17.049694,10.121785 15.306159,10.049206 
	C14.857903,10.665991 14.409648,11.282777 13.284478,12.320203 
	C13.239831,13.921446 13.195183,15.522689 12.811893,17.676962 
	C12.925956,18.736713 13.040018,19.796465 13.008057,21.398792 
	C12.968354,21.581829 12.928651,21.764866 12.187215,22.295910 
	C5.326268,23.985411 5.326268,23.985411 6.581272,30.882919 
	C8.014643,30.947975 9.474040,31.014212 11.314084,31.830233 
	C11.540040,37.507778 11.610595,43.198071 12.074632,48.856091 
	C12.241352,50.888939 13.355816,52.844055 14.887918,54.980625 
	C18.378057,54.931171 22.743298,56.443943 22.842169,50.426182 
	C22.882706,47.959084 23.034536,45.493816 23.782652,42.678352 
	C23.797665,41.453953 23.812677,40.229553 23.976616,38.207809 
	C23.707535,36.473034 23.438454,34.738262 23.316936,32.283596 
	C25.199465,31.799898 27.081995,31.316200 29.735954,30.649216 
	C29.487108,28.487383 29.238262,26.325550 28.204752,24.022961 
	C26.468769,23.633495 24.732786,23.244030 22.980598,22.092731 
	C23.032982,21.068165 23.085363,20.043598 23.777792,18.702875 
	C23.535608,17.437038 23.293425,16.171200 23.011435,14.216407 
	C22.675470,13.454091 22.339506,12.691774 22.027870,12.002188 
	C22.027870,12.002188 22.100540,11.977681 22.001339,11.277772 
	C21.331640,10.906631 20.661942,10.535491 19.198849,10.019094 
M52.220783,55.002220 
	C58.484932,56.074520 62.006500,50.846752 64.414322,47.375980 
	C70.122482,39.147900 66.571297,28.610649 58.239849,25.228148 
	C54.596817,23.749105 50.388874,23.222002 46.412136,23.102041 
	C39.550369,22.895046 32.205566,30.435570 32.003807,37.268353 
	C31.660587,48.891804 38.311131,54.999073 52.220783,55.002220 
z"/>
<path fill="#FB6348" opacity="1.000000" stroke="none" 
	d="
M51.766747,55.001083 
	C38.311131,54.999073 31.660587,48.891804 32.003807,37.268353 
	C32.205566,30.435570 39.550369,22.895046 46.412136,23.102041 
	C50.388874,23.222002 54.596817,23.749105 58.239849,25.228148 
	C66.571297,28.610649 70.122482,39.147900 64.414322,47.375980 
	C62.006500,50.846752 58.484932,56.074520 51.766747,55.001083 
M49.421162,46.976181 
	C51.201298,45.896214 53.213169,45.066940 54.711422,43.682022 
	C57.490570,41.113102 57.728104,38.034893 55.403866,34.938213 
	C52.977673,31.705688 49.694954,30.616734 46.448067,33.049583 
	C44.475399,34.527676 42.251945,37.292355 42.279766,39.451515 
	C42.325230,42.979813 44.562988,46.088169 49.421162,46.976181 
z"/>
<path fill="#FC6347" opacity="1.000000" stroke="none" 
	d="
M22.996805,22.854565 
	C24.732786,23.244030 26.468769,23.633495 28.599178,24.509773 
	C28.983912,26.941891 28.974216,28.887197 28.964523,30.832504 
	C27.081995,31.316200 25.199465,31.799898 23.197701,33.070084 
	C23.098961,35.583260 23.119455,37.309948 23.102846,39.435276 
	C23.089077,40.898514 23.112408,41.963116 23.135738,43.027714 
	C23.034536,45.493816 22.882706,47.959084 22.842169,50.426182 
	C22.743298,56.443943 18.378057,54.931171 14.456112,54.449516 
	C14.013160,47.842087 14.208447,41.753593 13.851340,35.697678 
	C13.757526,34.106777 11.952582,32.616783 10.933437,31.080450 
	C9.474040,31.014212 8.014643,30.947975 6.581272,30.882919 
	C5.326268,23.985411 5.326268,23.985411 12.678722,22.167591 
	C13.164846,21.644920 13.159464,21.250568 13.154081,20.856216 
	C13.040018,19.796465 12.925956,18.736713 13.157615,17.089052 
	C13.700365,15.348196 13.897394,14.195251 14.362598,12.931868 
	C15.089135,12.231997 15.547494,11.642562 16.404518,11.040491 
	C17.867643,11.017305 18.932100,11.006755 20.258057,11.122293 
	C21.046549,11.491483 21.573544,11.734582 22.100540,11.977681 
	C22.100540,11.977681 22.027870,12.002188 21.994877,12.318224 
	C21.921921,13.102937 21.881958,13.571612 21.729530,14.219078 
	C21.695904,14.919917 21.774738,15.441968 21.942719,16.231689 
	C22.114471,16.668329 22.197079,16.837301 22.282181,17.340115 
	C22.316742,18.117218 22.348804,18.560480 22.258200,18.991253 
	C22.135532,18.978765 21.889473,18.995098 21.826159,19.114822 
	C21.687326,19.511066 21.741991,19.762365 21.962280,20.302551 
	C22.330750,21.362623 22.663778,22.108593 22.996805,22.854565 
z"/>
<path fill="#F97663" opacity="1.000000" stroke="none" 
	d="
M11.123760,31.455341 
	C11.952582,32.616783 13.757526,34.106777 13.851340,35.697678 
	C14.208447,41.753593 14.013160,47.842087 14.031026,54.376526 
	C13.355816,52.844055 12.241352,50.888939 12.074632,48.856091 
	C11.610595,43.198071 11.540040,37.507778 11.123760,31.455341 
z"/>
<path fill="#F67E68" opacity="1.000000" stroke="none" 
	d="
M29.350239,30.740860 
	C28.974216,28.887197 28.983912,26.941891 28.991512,24.580151 
	C29.238262,26.325550 29.487108,28.487383 29.350239,30.740860 
z"/>
<path fill="#F7AEA0" opacity="1.000000" stroke="none" 
	d="
M22.380867,19.003740 
	C22.348804,18.560480 22.316742,18.117218 22.420454,17.096704 
	C22.721233,15.981421 22.886236,15.443392 23.051241,14.905362 
	C23.293425,16.171200 23.535608,17.437038 23.268848,18.834084 
	C22.759905,18.965294 22.380867,19.003740 22.380867,19.003740 
z"/>
<path fill="#DE897F" opacity="1.000000" stroke="none" 
	d="
M23.139948,39.036636 
	C23.119455,37.309948 23.098961,35.583260 23.123920,33.430031 
	C23.438454,34.738262 23.707535,36.473034 23.730202,38.614006 
	C23.483786,39.020206 23.139948,39.036636 23.139948,39.036636 
z"/>
<path fill="#F46851" opacity="1.000000" stroke="none" 
	d="
M16.005854,11.053126 
	C15.547494,11.642562 15.089135,12.231997 14.323928,12.646545 
	C13.998518,12.280959 13.979956,12.090261 13.961393,11.899563 
	C14.409648,11.282777 14.857903,10.665991 15.648657,10.331154 
	C15.991156,10.613101 16.005854,11.053126 16.005854,11.053126 
z"/>
<path fill="#FD937D" opacity="1.000000" stroke="none" 
	d="
M23.031338,14.560884 
	C22.886236,15.443392 22.721233,15.981421 22.417957,16.762861 
	C22.197079,16.837301 22.114471,16.668329 21.971336,15.911653 
	C21.887873,14.896060 21.864933,14.468175 21.841993,14.040289 
	C21.881958,13.571612 21.921921,13.102937 21.982714,12.281859 
	C22.339506,12.691774 22.675470,13.454091 23.031338,14.560884 
z"/>
<path fill="#F07968" opacity="1.000000" stroke="none" 
	d="
M13.622936,12.109882 
	C13.979956,12.090261 13.998518,12.280959 14.055752,12.756981 
	C13.897394,14.195251 13.700365,15.348196 13.326936,16.812538 
	C13.195183,15.522689 13.239831,13.921446 13.622936,12.109882 
z"/>
<path fill="#FD937D" opacity="1.000000" stroke="none" 
	d="
M22.258200,18.991253 
	C22.380867,19.003740 22.759905,18.965294 22.948826,18.992163 
	C23.085363,20.043598 23.032982,21.068165 22.988701,22.473648 
	C22.663778,22.108593 22.330750,21.362623 21.973518,20.053562 
	C21.949312,19.490471 21.889473,18.995098 21.889473,18.995098 
	C21.889473,18.995098 22.135532,18.978765 22.258200,18.991253 
z"/>
<path fill="#F77165" opacity="1.000000" stroke="none" 
	d="
M16.404518,11.040491 
	C16.005854,11.053126 15.991156,10.613101 15.983136,10.393116 
	C17.049694,10.121785 18.124271,10.070440 19.597206,10.299681 
	C19.995565,10.580268 19.996559,10.996203 19.996559,10.996203 
	C18.932100,11.006755 17.867643,11.017305 16.404518,11.040491 
z"/>
<path fill="#E09290" opacity="1.000000" stroke="none" 
	d="
M23.102846,39.435276 
	C23.139948,39.036636 23.483786,39.020206 23.655739,39.012680 
	C23.812677,40.229553 23.797665,41.453953 23.459194,42.853035 
	C23.112408,41.963116 23.089077,40.898514 23.102846,39.435276 
z"/>
<path fill="#E97061" opacity="1.000000" stroke="none" 
	d="
M20.258057,11.122293 
	C19.996559,10.996203 19.995565,10.580268 19.993904,10.372309 
	C20.661942,10.535491 21.331640,10.906631 22.050940,11.627727 
	C21.573544,11.734582 21.046549,11.491483 20.258057,11.122293 
z"/>
<path fill="#F07968" opacity="1.000000" stroke="none" 
	d="
M13.081069,21.127504 
	C13.159464,21.250568 13.164846,21.644920 13.029589,21.993587 
	C12.928651,21.764866 12.968354,21.581829 13.081069,21.127504 
z"/>
<path fill="#000000" opacity="1.000000" stroke="none" 
	d="
M49.030945,46.945656 
	C44.562988,46.088169 42.325230,42.979813 42.279766,39.451515 
	C42.251945,37.292355 44.475399,34.527676 46.448067,33.049583 
	C49.694954,30.616734 52.977673,31.705688 55.403866,34.938213 
	C57.728104,38.034893 57.490570,41.113102 54.711422,43.682022 
	C53.213169,45.066940 51.201298,45.896214 49.030945,46.945656 
z"/>
<path fill="#F46851" opacity="1.000000" stroke="none" 
	d="
M21.729530,14.219078 
	C21.864933,14.468175 21.887873,14.896060 21.882193,15.643982 
	C21.774738,15.441968 21.695904,14.919917 21.729530,14.219078 
z"/>
<path fill="#F46851" opacity="1.000000" stroke="none" 
	d="
M21.826159,19.114822 
	C21.889473,18.995098 21.949312,19.490471 21.938076,19.739460 
	C21.741991,19.762365 21.687326,19.511066 21.826159,19.114822 
z"/>
</svg>